<svg width="28" height="28" viewBox="0 0 28 28" fill="none" xmlns="http://www.w3.org/2000/svg">
<path d="M17.874 12.0654L13.0347 16.9048L10.1309 14.0009" stroke="#011F3A" stroke-width="2" stroke-linecap="round" stroke-linejoin="round"/>
<path fill-rule="evenodd" clip-rule="evenodd" d="M22.2817 6.90798C19.4129 6.68165 16.8019 5.53948 14.7415 3.77198C14.3192 3.41032 13.6764 3.41032 13.2552 3.77198C11.1949 5.53832 8.58387 6.68165 5.71504 6.90798C5.11771 6.95465 4.66504 7.46565 4.66504 8.06415V13.1158C4.66504 18.2106 8.34704 22.9881 13.3894 24.415C13.7849 24.527 14.213 24.527 14.6085 24.415C19.6497 22.987 23.3317 18.2118 23.3317 13.117V8.06532C23.3317 7.46565 22.879 6.95465 22.2817 6.90798Z" stroke="#011F3A" stroke-width="2" stroke-linecap="round" stroke-linejoin="round"/>
</svg>
