<svg width="950" height="439" viewBox="0 0 950 439" fill="none" xmlns="http://www.w3.org/2000/svg">
<g filter="url(#filter0_d_536_7418)">
<path d="M164.285 354.26H4V291.574L170.41 66.8224H256.168V278.833H294.963V354.26H256.168V423.572H164.285V354.26ZM164.285 278.833V168.241L86.1842 278.833H164.285Z" fill="url(#paint0_linear_536_7418)" shape-rendering="crispEdges"/>
<path d="M478.729 430.197C458.651 430.197 439.934 426.969 422.578 420.514C405.222 413.719 390.079 403.016 377.147 388.406C364.215 373.797 354.006 354.77 346.519 331.327C339.373 307.543 335.8 278.833 335.8 245.197V235.004C335.8 203.746 339.373 177.075 346.519 154.99C354.006 132.906 364.215 114.899 377.147 100.968C390.079 86.6984 405.222 76.3357 422.578 69.8802C439.934 63.4248 458.651 60.197 478.729 60.197C498.807 60.197 517.524 63.4248 534.879 69.8802C552.235 76.3357 567.379 86.6984 580.311 100.968C593.242 114.899 603.281 132.906 610.428 154.99C617.915 177.075 621.658 203.746 621.658 235.004V245.197C621.658 278.833 617.915 307.543 610.428 331.327C603.281 354.77 593.242 373.797 580.311 388.406C567.379 403.016 552.235 413.719 534.879 420.514C517.524 426.969 498.807 430.197 478.729 430.197ZM478.729 354.77C485.535 354.77 492.001 353.071 498.126 349.674C504.592 346.276 510.037 340.5 514.461 332.346C519.225 323.852 522.969 312.64 525.691 298.709C528.414 284.439 529.775 266.602 529.775 245.197V235.004C529.775 216.317 528.414 200.688 525.691 188.117C522.969 175.206 519.225 164.844 514.461 157.029C510.037 149.214 504.592 143.778 498.126 140.72C492.001 137.323 485.535 135.624 478.729 135.624C471.923 135.624 465.287 137.323 458.821 140.72C452.695 143.778 447.25 149.214 442.486 157.029C438.062 164.844 434.489 175.206 431.766 188.117C429.044 200.688 427.683 216.317 427.683 235.004V245.197C427.683 266.602 429.044 284.439 431.766 298.709C434.489 312.64 438.062 323.852 442.486 332.346C447.25 340.5 452.695 346.276 458.821 349.674C465.287 353.071 471.923 354.77 478.729 354.77Z" fill="url(#paint1_linear_536_7418)" shape-rendering="crispEdges"/>
<path d="M815.322 354.26H655.037V291.574L821.448 66.8224H907.205V278.833H946V354.26H907.205V423.572H815.322V354.26ZM815.322 278.833V168.241L737.221 278.833H815.322Z" fill="url(#paint2_linear_536_7418)" shape-rendering="crispEdges"/>
<path d="M645.523 129.565H649.104V125.979C649.104 123.417 651.321 121.197 653.879 121.197C656.437 121.197 658.654 123.417 658.654 125.979V129.565H662.235C664.793 129.565 667.01 131.785 667.01 134.346C667.01 136.908 664.793 139.128 662.235 139.128H658.654V142.714C658.654 145.276 656.437 147.496 653.879 147.496C651.321 147.496 649.104 145.276 649.104 142.714V139.128H645.523C642.965 139.128 640.748 136.908 640.748 134.346C640.748 131.785 642.965 129.565 645.523 129.565Z" fill="url(#paint3_linear_536_7418)" shape-rendering="crispEdges"/>
<path d="M429.114 27.2235C426.288 27.2235 423.998 24.9298 423.998 22.1003C423.998 19.2709 426.288 16.9771 429.114 16.9771C431.939 16.9771 434.23 19.2709 434.23 22.1003C434.23 24.9298 431.939 27.2235 429.114 27.2235Z" fill="url(#paint4_linear_536_7418)" shape-rendering="crispEdges"/>
<path d="M531.669 13.391C538.49 12.1956 543.776 6.90162 545.14 0.241506C545.14 0.0707342 545.311 -0.100036 545.481 0.0707367C545.652 0.0707367 545.652 0.241506 545.652 0.241506C547.016 7.0724 552.303 12.1956 559.124 13.391C559.294 13.391 559.465 13.5617 559.294 13.7325C559.294 13.9033 559.124 13.9033 559.124 13.9033C552.303 15.0987 547.016 20.3926 545.652 27.0527C545.652 27.2235 545.481 27.3943 545.311 27.2235C545.14 27.2235 545.14 27.0527 545.14 27.0527C543.776 20.2219 538.49 15.0987 531.669 13.9033C531.498 13.9033 531.328 13.7325 531.498 13.5617C531.498 13.391 531.498 13.391 531.669 13.391Z" fill="url(#paint5_linear_536_7418)" shape-rendering="crispEdges"/>
<path d="M688 201.443C685.175 201.443 682.884 199.15 682.884 196.32C682.884 193.491 685.175 191.197 688 191.197C690.825 191.197 693.116 193.491 693.116 196.32C693.116 199.15 690.825 201.443 688 201.443Z" fill="url(#paint6_linear_536_7418)" shape-rendering="crispEdges"/>
<path d="M637.676 65.4843C635.978 65.4843 634.603 64.1066 634.603 62.4071C634.603 60.7075 635.978 59.3298 637.676 59.3298C639.373 59.3298 640.748 60.7075 640.748 62.4071C640.748 64.1066 639.373 65.4843 637.676 65.4843Z" fill="url(#paint7_linear_536_7418)" shape-rendering="crispEdges"/>
<path d="M730.927 116.774C729.23 116.774 727.854 115.397 727.854 113.697C727.854 111.997 729.23 110.62 730.927 110.62C732.624 110.62 734 111.997 734 113.697C734 115.397 732.624 116.774 730.927 116.774Z" fill="url(#paint8_linear_536_7418)" shape-rendering="crispEdges"/>
<path d="M723.259 46.9422C729.368 45.8716 734.102 41.1307 735.324 35.1663C735.324 35.0134 735.477 34.8605 735.629 35.0134C735.782 35.0134 735.782 35.1663 735.782 35.1663C737.004 41.2836 741.738 45.8716 747.846 46.9422C747.999 46.9422 748.152 47.0951 747.999 47.248C747.999 47.401 747.846 47.401 747.846 47.401C741.738 48.4715 737.004 53.2124 735.782 59.1768C735.782 59.3297 735.629 59.4827 735.477 59.3297C735.324 59.3297 735.324 59.1768 735.324 59.1768C734.102 53.0595 729.368 48.4715 723.259 47.401C723.107 47.401 722.954 47.248 723.107 47.0951C723.107 46.9422 723.107 46.9422 723.259 46.9422Z" fill="url(#paint9_linear_536_7418)" shape-rendering="crispEdges"/>
<path d="M301.699 156.082C298.873 156.082 296.583 153.788 296.583 150.959C296.583 148.129 298.873 145.836 301.699 145.836C304.524 145.836 306.814 148.129 306.814 150.959C306.814 153.788 304.524 156.082 301.699 156.082Z" fill="url(#paint10_linear_536_7418)" shape-rendering="crispEdges"/>
<path d="M329.511 57.6254H333.092V54.0392C333.092 51.4777 335.309 49.2576 337.867 49.2576C340.425 49.2576 342.642 51.4777 342.642 54.0392V57.6254H346.223C348.781 57.6254 350.998 59.8455 350.998 62.4071C350.998 64.9686 348.781 67.1887 346.223 67.1887H342.642V70.7749C342.642 73.3365 340.425 75.5565 337.867 75.5565C335.309 75.5565 333.092 73.3365 333.092 70.7749V67.1887H329.511C326.953 67.1887 324.736 64.9686 324.736 62.4071C324.736 59.8455 326.953 57.6254 329.511 57.6254Z" fill="url(#paint11_linear_536_7418)" shape-rendering="crispEdges"/>
</g>
<defs>
<filter id="filter0_d_536_7418" x="0" y="0" width="950" height="438.197" filterUnits="userSpaceOnUse" color-interpolation-filters="sRGB">
<feFlood flood-opacity="0" result="BackgroundImageFix"/>
<feColorMatrix in="SourceAlpha" type="matrix" values="0 0 0 0 0 0 0 0 0 0 0 0 0 0 0 0 0 0 127 0" result="hardAlpha"/>
<feOffset dy="4"/>
<feGaussianBlur stdDeviation="2"/>
<feComposite in2="hardAlpha" operator="out"/>
<feColorMatrix type="matrix" values="0 0 0 0 0 0 0 0 0 0 0 0 0 0 0 0 0 0 0.25 0"/>
<feBlend mode="normal" in2="BackgroundImageFix" result="effect1_dropShadow_536_7418"/>
<feBlend mode="normal" in="SourceGraphic" in2="effect1_dropShadow_536_7418" result="shape"/>
</filter>
<linearGradient id="paint0_linear_536_7418" x1="248.004" y1="-10.4139" x2="251.79" y2="492.276" gradientUnits="userSpaceOnUse">
<stop stop-color="#E2E2EC"/>
<stop offset="1" stop-color="#B4B0AC" stop-opacity="0"/>
</linearGradient>
<linearGradient id="paint1_linear_536_7418" x1="248.004" y1="-10.4139" x2="251.79" y2="492.276" gradientUnits="userSpaceOnUse">
<stop stop-color="#E2E2EC"/>
<stop offset="1" stop-color="#B4B0AC" stop-opacity="0"/>
</linearGradient>
<linearGradient id="paint2_linear_536_7418" x1="248.004" y1="-10.4139" x2="251.79" y2="492.276" gradientUnits="userSpaceOnUse">
<stop stop-color="#E2E2EC"/>
<stop offset="1" stop-color="#B4B0AC" stop-opacity="0"/>
</linearGradient>
<linearGradient id="paint3_linear_536_7418" x1="834.5" y1="-20.803" x2="61.9412" y2="480.197" gradientUnits="userSpaceOnUse">
<stop stop-color="#181689" stop-opacity="0"/>
<stop offset="0.300241" stop-color="#5618D9" stop-opacity="0.753307"/>
<stop offset="0.479303" stop-color="#C73AF8" stop-opacity="0.753307"/>
<stop offset="0.566554" stop-color="#1D19D5" stop-opacity="0.890436"/>
<stop offset="0.636266" stop-color="#9026FA"/>
<stop offset="0.936364" stop-color="#1D18FA" stop-opacity="0.189273"/>
<stop offset="1" stop-color="#A15E5E" stop-opacity="0"/>
</linearGradient>
<linearGradient id="paint4_linear_536_7418" x1="834.5" y1="-20.803" x2="61.9412" y2="480.197" gradientUnits="userSpaceOnUse">
<stop stop-color="#181689" stop-opacity="0"/>
<stop offset="0.300241" stop-color="#5618D9" stop-opacity="0.753307"/>
<stop offset="0.479303" stop-color="#C73AF8" stop-opacity="0.753307"/>
<stop offset="0.566554" stop-color="#1D19D5" stop-opacity="0.890436"/>
<stop offset="0.636266" stop-color="#9026FA"/>
<stop offset="0.936364" stop-color="#1D18FA" stop-opacity="0.189273"/>
<stop offset="1" stop-color="#A15E5E" stop-opacity="0"/>
</linearGradient>
<linearGradient id="paint5_linear_536_7418" x1="834.5" y1="-20.803" x2="61.9412" y2="480.197" gradientUnits="userSpaceOnUse">
<stop stop-color="#181689" stop-opacity="0"/>
<stop offset="0.300241" stop-color="#5618D9" stop-opacity="0.753307"/>
<stop offset="0.479303" stop-color="#C73AF8" stop-opacity="0.753307"/>
<stop offset="0.566554" stop-color="#1D19D5" stop-opacity="0.890436"/>
<stop offset="0.636266" stop-color="#9026FA"/>
<stop offset="0.936364" stop-color="#1D18FA" stop-opacity="0.189273"/>
<stop offset="1" stop-color="#A15E5E" stop-opacity="0"/>
</linearGradient>
<linearGradient id="paint6_linear_536_7418" x1="834.5" y1="-20.803" x2="61.9412" y2="480.197" gradientUnits="userSpaceOnUse">
<stop stop-color="#181689" stop-opacity="0"/>
<stop offset="0.300241" stop-color="#5618D9" stop-opacity="0.753307"/>
<stop offset="0.479303" stop-color="#C73AF8" stop-opacity="0.753307"/>
<stop offset="0.566554" stop-color="#1D19D5" stop-opacity="0.890436"/>
<stop offset="0.636266" stop-color="#9026FA"/>
<stop offset="0.936364" stop-color="#1D18FA" stop-opacity="0.189273"/>
<stop offset="1" stop-color="#A15E5E" stop-opacity="0"/>
</linearGradient>
<linearGradient id="paint7_linear_536_7418" x1="834.5" y1="-20.803" x2="61.9412" y2="480.197" gradientUnits="userSpaceOnUse">
<stop stop-color="#181689" stop-opacity="0"/>
<stop offset="0.300241" stop-color="#5618D9" stop-opacity="0.753307"/>
<stop offset="0.479303" stop-color="#C73AF8" stop-opacity="0.753307"/>
<stop offset="0.566554" stop-color="#1D19D5" stop-opacity="0.890436"/>
<stop offset="0.636266" stop-color="#9026FA"/>
<stop offset="0.936364" stop-color="#1D18FA" stop-opacity="0.189273"/>
<stop offset="1" stop-color="#A15E5E" stop-opacity="0"/>
</linearGradient>
<linearGradient id="paint8_linear_536_7418" x1="834.5" y1="-20.803" x2="61.9412" y2="480.197" gradientUnits="userSpaceOnUse">
<stop stop-color="#181689" stop-opacity="0"/>
<stop offset="0.300241" stop-color="#5618D9" stop-opacity="0.753307"/>
<stop offset="0.479303" stop-color="#C73AF8" stop-opacity="0.753307"/>
<stop offset="0.566554" stop-color="#1D19D5" stop-opacity="0.890436"/>
<stop offset="0.636266" stop-color="#9026FA"/>
<stop offset="0.936364" stop-color="#1D18FA" stop-opacity="0.189273"/>
<stop offset="1" stop-color="#A15E5E" stop-opacity="0"/>
</linearGradient>
<linearGradient id="paint9_linear_536_7418" x1="834.5" y1="-20.803" x2="61.9412" y2="480.197" gradientUnits="userSpaceOnUse">
<stop stop-color="#181689" stop-opacity="0"/>
<stop offset="0.300241" stop-color="#5618D9" stop-opacity="0.753307"/>
<stop offset="0.479303" stop-color="#C73AF8" stop-opacity="0.753307"/>
<stop offset="0.566554" stop-color="#1D19D5" stop-opacity="0.890436"/>
<stop offset="0.636266" stop-color="#9026FA"/>
<stop offset="0.936364" stop-color="#1D18FA" stop-opacity="0.189273"/>
<stop offset="1" stop-color="#A15E5E" stop-opacity="0"/>
</linearGradient>
<linearGradient id="paint10_linear_536_7418" x1="834.5" y1="-20.803" x2="61.9412" y2="480.197" gradientUnits="userSpaceOnUse">
<stop stop-color="#181689" stop-opacity="0"/>
<stop offset="0.300241" stop-color="#5618D9" stop-opacity="0.753307"/>
<stop offset="0.479303" stop-color="#C73AF8" stop-opacity="0.753307"/>
<stop offset="0.566554" stop-color="#1D19D5" stop-opacity="0.890436"/>
<stop offset="0.636266" stop-color="#9026FA"/>
<stop offset="0.936364" stop-color="#1D18FA" stop-opacity="0.189273"/>
<stop offset="1" stop-color="#A15E5E" stop-opacity="0"/>
</linearGradient>
<linearGradient id="paint11_linear_536_7418" x1="834.5" y1="-20.803" x2="61.9412" y2="480.197" gradientUnits="userSpaceOnUse">
<stop stop-color="#181689" stop-opacity="0"/>
<stop offset="0.300241" stop-color="#5618D9" stop-opacity="0.753307"/>
<stop offset="0.479303" stop-color="#C73AF8" stop-opacity="0.753307"/>
<stop offset="0.566554" stop-color="#1D19D5" stop-opacity="0.890436"/>
<stop offset="0.636266" stop-color="#9026FA"/>
<stop offset="0.936364" stop-color="#1D18FA" stop-opacity="0.189273"/>
<stop offset="1" stop-color="#A15E5E" stop-opacity="0"/>
</linearGradient>
</defs>
</svg>
