<svg width="20" height="21" viewBox="0 0 20 21" fill="none" xmlns="http://www.w3.org/2000/svg">
<g id="icons/eye">
<g id="Vector">
<path fill-rule="evenodd" clip-rule="evenodd" d="M2.59813 10.8885C2.46729 10.646 2.46729 10.3518 2.59813 10.1093C4.17479 7.19352 7.08729 4.66602 9.99979 4.66602C12.9123 4.66602 15.8248 7.19352 17.4015 10.1102C17.5323 10.3527 17.5323 10.6468 17.4015 10.8893C15.8248 13.8052 12.9123 16.3327 9.99979 16.3327C7.08729 16.3327 4.17479 13.8052 2.59813 10.8885Z" stroke="#99A5B0" stroke-width="1.5" stroke-linecap="round" stroke-linejoin="round"/>
<path fill-rule="evenodd" clip-rule="evenodd" d="M11.7675 8.73158C12.7438 9.70789 12.7438 11.2908 11.7675 12.2671C10.7912 13.2434 9.20832 13.2434 8.23201 12.2671C7.2557 11.2908 7.2557 9.70789 8.23201 8.73158C9.20832 7.75527 10.7912 7.75527 11.7675 8.73158Z" stroke="#99A5B0" stroke-width="1.5" stroke-linecap="round" stroke-linejoin="round"/>
</g>
</g>
</svg>
