<svg width="24" height="24" viewBox="0 0 24 24" fill="none" xmlns="http://www.w3.org/2000/svg">
<g id="icons/arrow2">
<path id="Vector (Stroke)" fill-rule="evenodd" clip-rule="evenodd" d="M13.498 6.28925C13.8082 5.9791 14.311 5.9791 14.6212 6.28925L19.7708 11.4389C19.9198 11.5878 20.0034 11.7898 20.0034 12.0005C20.0034 12.2111 19.9198 12.4131 19.7708 12.562L14.6212 17.7117C14.311 18.0218 13.8082 18.0218 13.498 17.7117C13.1879 17.4015 13.1879 16.8987 13.498 16.5885L17.2919 12.7946H4.79028C4.35166 12.7946 3.99609 12.4391 3.99609 12.0005C3.99609 11.5618 4.35166 11.2063 4.79028 11.2063H17.2919L13.498 7.4124C13.1879 7.10225 13.1879 6.5994 13.498 6.28925Z" fill="#011F3A"/>
</g>
</svg>
