<svg width="20" height="20" viewBox="0 0 20 20" fill="none" xmlns="http://www.w3.org/2000/svg">
<g id="Plus, minus">
<g id="Union">
<path fill-rule="evenodd" clip-rule="evenodd" d="M10.75 4.375C10.75 3.98667 10.4142 3.67188 10 3.67188C9.58579 3.67188 9.25 3.98667 9.25 4.375V9.29688H4C3.58579 9.29688 3.25 9.61167 3.25 10C3.25 10.3883 3.58579 10.7031 4 10.7031H9.25V15.625C9.25 16.0133 9.58579 16.3281 10 16.3281C10.4142 16.3281 10.75 16.0133 10.75 15.625V10.7031H16C16.4142 10.7031 16.75 10.3883 16.75 10C16.75 9.61167 16.4142 9.29688 16 9.29688H10.75V4.375Z" fill="#c614f2"/>
<path fill-rule="evenodd" clip-rule="evenodd" d="M10.75 4.375C10.75 3.98667 10.4142 3.67188 10 3.67188C9.58579 3.67188 9.25 3.98667 9.25 4.375V9.29688H4C3.58579 9.29688 3.25 9.61167 3.25 10C3.25 10.3883 3.58579 10.7031 4 10.7031H9.25V15.625C9.25 16.0133 9.58579 16.3281 10 16.3281C10.4142 16.3281 10.75 16.0133 10.75 15.625V10.7031H16C16.4142 10.7031 16.75 10.3883 16.75 10C16.75 9.61167 16.4142 9.29688 16 9.29688H10.75V4.375Z" fill="url(#paint0_linear_2888_207433)" fill-opacity="0.2"/>
</g>
</g>
<defs>
<linearGradient id="paint0_linear_2888_207433" x1="-16.01" y1="22.3187" x2="23.654" y2="2.10062" gradientUnits="userSpaceOnUse">
<stop stop-color="#C614F2"/>
<stop offset="1" stop-color="#1BF9EC"/>
</linearGradient>
</defs>
</svg>
