<?xml version="1.0" standalone="no"?>
<!DOCTYPE svg PUBLIC "-//W3C//DTD SVG 20010904//EN"
 "http://www.w3.org/TR/2001/REC-SVG-20010904/DTD/svg10.dtd">
<svg version="1.0" xmlns="http://www.w3.org/2000/svg"
 width="1280.000000pt" height="1280.000000pt" viewBox="0 0 1280.000000 1280.000000"
 preserveAspectRatio="xMidYMid meet">
<metadata>
Created by potrace 1.16, written by Peter Selinger 2001-2019
</metadata>
<g transform="translate(0.000000,1280.000000) scale(0.100000,-0.100000)"
fill="#000000" stroke="none">
<path d="M5175 9556 c-22 -7 -60 -23 -85 -35 -33 -17 -437 -414 -1466 -1444
-1638 -1638 -1489 -1471 -1489 -1677 0 -206 -149 -39 1489 -1677 1370 -1371
1424 -1423 1491 -1455 60 -28 83 -33 167 -36 114 -5 192 17 271 74 174 126
227 377 120 564 -16 28 -413 433 -1052 1073 l-1026 1027 3343 0 c3739 0 3425
-6 3542 72 72 48 120 104 157 184 26 54 28 69 28 174 0 109 -2 119 -32 183
-57 120 -169 207 -301 236 -39 8 -941 11 -3395 11 l-3342 0 1026 1028 c639
639 1036 1044 1052 1072 133 232 18 538 -231 619 -72 24 -203 27 -267 7z"/>
</g>
</svg>
