<svg width="16" height="16" viewBox="0 0 16 16" fill="none" xmlns="http://www.w3.org/2000/svg">
<path fill-rule="evenodd" clip-rule="evenodd" d="M5.53235 3.23416C3.81097 3.23416 2.56302 4.87791 2.56302 6.50416C2.56302 8.20328 3.62941 9.76968 4.93221 10.9494C5.57488 11.5313 6.25142 11.9967 6.83079 12.3137C7.12054 12.4722 7.37901 12.5898 7.5908 12.6664C7.81395 12.747 7.94588 12.7675 7.99635 12.7675C8.04682 12.7675 8.17876 12.747 8.40191 12.6664C8.61369 12.5898 8.87217 12.4722 9.16191 12.3137C9.74129 11.9967 10.4178 11.5313 11.0605 10.9494C12.3633 9.76968 13.4297 8.20328 13.4297 6.50416C13.4297 4.87791 12.1817 3.23416 10.4604 3.23416C9.46242 3.23416 8.81307 3.72484 8.42709 4.17637C8.31943 4.30232 8.16204 4.37483 7.99635 4.37483C7.83067 4.37483 7.67328 4.30232 7.56562 4.17637C7.17963 3.72484 6.53028 3.23416 5.53235 3.23416ZM1.42969 6.50416C1.42969 4.43042 3.0204 2.10083 5.53235 2.10083C6.6289 2.10083 7.4388 2.52654 7.99635 3.00713C8.55391 2.52654 9.36381 2.10083 10.4604 2.10083C12.9723 2.10083 14.563 4.43042 14.563 6.50416C14.563 8.67238 13.2221 10.521 11.8212 11.7895C11.112 12.4316 10.3627 12.9486 9.70592 13.3079C9.3776 13.4876 9.06546 13.6316 8.78706 13.7322C8.52003 13.8287 8.24222 13.9008 7.99635 13.9008C7.75049 13.9008 7.47267 13.8287 7.20564 13.7322C6.92724 13.6316 6.61511 13.4876 6.28679 13.3079C5.63004 12.9486 4.88066 12.4316 4.1715 11.7895C2.77063 10.521 1.42969 8.67238 1.42969 6.50416Z" fill="#99A5B0"/>
</svg>
