<svg width="24" height="24" viewBox="0 0 24 24" fill="none" xmlns="http://www.w3.org/2000/svg">
<path fill-rule="evenodd" clip-rule="evenodd" d="M2.14941 9.75612C2.14941 6.64551 4.53549 3.15112 8.30341 3.15112C9.94823 3.15112 11.1631 3.78969 11.9994 4.51058C12.8357 3.78969 14.0506 3.15112 15.6954 3.15112C19.4633 3.15112 21.8494 6.64551 21.8494 9.75612C21.8494 13.0085 19.838 15.7813 17.7367 17.6841C16.673 18.6473 15.5489 19.4228 14.5638 19.9618C14.0713 20.2312 13.6031 20.4473 13.1855 20.5982C12.7849 20.743 12.3682 20.8511 11.9994 20.8511C11.6306 20.8511 11.2139 20.743 10.8133 20.5982C10.3957 20.4473 9.92754 20.2312 9.43507 19.9618C8.44994 19.4228 7.32587 18.6473 6.26213 17.6841C4.16083 15.7813 2.14941 13.0085 2.14941 9.75612Z" fill="#F10E0E"/>
</svg>
