<svg width="16" height="16" viewBox="0 0 16 16" fill="none" xmlns="http://www.w3.org/2000/svg">
<path fill-rule="evenodd" clip-rule="evenodd" d="M1.08594 1.80641C1.08594 1.49345 1.33964 1.23975 1.6526 1.23975H2.98586C3.25256 1.23975 3.48317 1.42573 3.53967 1.68638L3.94571 3.55979H13.253C14.1253 3.55979 14.7645 4.37899 14.5529 5.22517L13.5104 9.39507C13.2939 10.2601 12.5585 10.8966 11.6707 10.9854L6.39955 11.5128C5.32676 11.6194 4.34459 10.9025 4.12143 9.84759L2.9349 4.24649L2.52885 2.37308H1.6526C1.33964 2.37308 1.08594 2.11937 1.08594 1.80641ZM4.18799 4.69313L5.23016 9.61271C5.33345 10.1012 5.7885 10.4346 6.28708 10.3851L11.5579 9.85767C11.9693 9.81653 12.3104 9.52176 12.411 9.12004L13.4534 4.9503C13.4862 4.81897 13.3876 4.69313 13.253 4.69313H4.18799ZM4.82406 13.8959C4.82242 13.4238 5.206 13.0461 5.67224 13.0461C6.14219 13.0461 6.52273 13.4267 6.52273 13.8966C6.52273 14.3658 6.14219 14.7463 5.67301 14.7463C5.20777 14.7463 4.82244 14.3696 4.82406 13.8959ZM11.3302 13.899C11.3271 13.4257 11.7112 13.0465 12.1784 13.0465C12.6479 13.0465 13.0273 13.426 13.0296 13.8934L13.0296 13.8962C13.0296 14.3654 12.6491 14.7459 12.1799 14.7459C11.7116 14.7459 11.3317 14.3669 11.3302 13.899Z" fill="white"/>
</svg>
