<svg width="12" height="12" viewBox="0 0 12 12" fill="none" xmlns="http://www.w3.org/2000/svg">
<rect width="12" height="12" rx="6" fill="url(#paint0_linear_297_3949)"/>
<path d="M9.24988 5.45997L8.63488 8.17747C8.62268 8.23432 8.59105 8.28515 8.54542 8.3212C8.49979 8.35725 8.44302 8.37626 8.38488 8.37497H3.59488C3.53674 8.37626 3.47998 8.35725 3.43435 8.3212C3.38872 8.28515 3.35708 8.23432 3.34488 8.17747L2.74988 5.45997C2.73987 5.41405 2.743 5.36624 2.75892 5.32202C2.77484 5.2778 2.8029 5.23897 2.83988 5.20997C2.87697 5.18087 2.92152 5.16284 2.96841 5.15798C3.0153 5.15311 3.06261 5.1616 3.10488 5.18247L4.56488 5.88997L5.77488 3.74997C5.79669 3.71149 5.82831 3.67949 5.86652 3.65723C5.90473 3.63496 5.94816 3.62323 5.99238 3.62323C6.0366 3.62323 6.08004 3.63496 6.11825 3.65723C6.15646 3.67949 6.18808 3.71149 6.20988 3.74997L7.41988 5.89247L8.88988 5.17997C8.93245 5.1574 8.98064 5.14762 9.02864 5.15179C9.07665 5.15597 9.12242 5.17393 9.16046 5.20351C9.19849 5.2331 9.22717 5.27304 9.24303 5.31854C9.2589 5.36404 9.26127 5.41315 9.24988 5.45997Z" fill="white"/>
<defs>
<linearGradient id="paint0_linear_297_3949" x1="12.72" y1="20.5" x2="-6.21762" y2="16.755" gradientUnits="userSpaceOnUse">
<stop stop-color="#14B2F2"/>
<stop offset="1" stop-color="#D222CB"/>
</linearGradient>
</defs>
</svg>
