<svg width="54" height="54" viewBox="0 0 54 54" fill="none" xmlns="http://www.w3.org/2000/svg">
<rect width="54" height="54" rx="27" fill="white" fill-opacity="0.5"/>
<path d="M22.1207 20.8582C21.772 20.5095 21.2065 20.5095 20.8578 20.8582C20.509 21.207 20.509 21.7724 20.8578 22.1212L25.7368 27.0002L20.8578 31.8792C20.509 32.228 20.509 32.7934 20.8578 33.1422C21.2065 33.491 21.772 33.491 22.1207 33.1422L26.9997 28.2632L31.8788 33.1422C32.2275 33.491 32.793 33.491 33.1417 33.1422C33.4905 32.7934 33.4905 32.228 33.1417 31.8792L28.2627 27.0002L33.1417 22.1212C33.4905 21.7724 33.4905 21.207 33.1417 20.8582C32.793 20.5095 32.2275 20.5095 31.8788 20.8582L26.9997 25.7373L22.1207 20.8582Z" fill="#011F3A"/>
</svg>
