<svg width="24" height="24" viewBox="0 0 24 24" fill="none" xmlns="http://www.w3.org/2000/svg">
<path fill-rule="evenodd" clip-rule="evenodd" d="M20.4051 3.48779C18.1598 1.23984 15.1737 0.00131836 11.9925 0C5.43736 0 0.102393 5.33481 0.0997559 11.8917C0.098877 13.9878 0.646436 16.0339 1.68721 17.8374L0 24L6.30454 22.3462C8.0417 23.2938 9.99742 23.7932 11.9877 23.7938H11.9927C18.5471 23.7938 23.8827 18.4585 23.8852 11.9013C23.8865 8.72344 22.6506 5.7356 20.4051 3.48779ZM11.9925 21.7853H11.9884C10.2148 21.7846 8.4753 21.3079 6.95743 20.4075L6.59663 20.1932L2.85542 21.1746L3.85401 17.527L3.6189 17.153C2.6294 15.5792 2.10689 13.7602 2.10776 11.8925C2.10982 6.44253 6.54419 2.00859 11.9965 2.00859C14.6367 2.00947 17.1186 3.03896 18.9848 4.90737C20.851 6.77578 21.8782 9.25928 21.8773 11.9005C21.875 17.3509 17.4409 21.7853 11.9925 21.7853ZM17.4145 14.3821C17.1174 14.2333 15.6564 13.5146 15.3839 13.4153C15.1118 13.3162 14.9134 13.2668 14.7155 13.5642C14.5173 13.8615 13.948 14.531 13.7745 14.7292C13.6011 14.9275 13.4279 14.9524 13.1307 14.8036C12.8335 14.6549 11.8761 14.341 10.741 13.3286C9.85767 12.5407 9.26133 11.5676 9.08789 11.2702C8.91475 10.9726 9.08643 10.8272 9.21827 10.6638C9.53995 10.2643 9.86207 9.84551 9.96109 9.64732C10.0603 9.44897 10.0106 9.27539 9.93619 9.12671C9.86207 8.97803 9.26778 7.51538 9.02022 6.92022C8.77881 6.34102 8.53404 6.41924 8.35152 6.41016C8.17837 6.40151 7.98018 6.39976 7.78199 6.39976C7.58394 6.39976 7.26197 6.47402 6.9895 6.77168C6.71719 7.06919 5.94961 7.78799 5.94961 9.25064C5.94961 10.7133 7.01441 12.1263 7.16294 12.3246C7.31148 12.523 9.2584 15.5244 12.2392 16.8114C12.9482 17.1179 13.5016 17.3005 13.9333 17.4375C14.6452 17.6637 15.2928 17.6317 15.8049 17.5553C16.3759 17.4699 17.5629 16.8363 17.8107 16.1423C18.0583 15.4481 18.0583 14.8532 17.9839 14.7292C17.9098 14.6052 17.7116 14.531 17.4145 14.3821Z" fill="#011F3A"/>
</svg>
