<svg width="25" height="25" viewBox="0 0 25 25" fill="none" xmlns="http://www.w3.org/2000/svg">
<path d="M20.3547 15.2096C21.9693 16.7096 22.3026 17.4284 22.3547 17.5221C23.0213 18.6263 21.6255 18.7096 21.6255 18.7096L18.938 18.7513C18.938 18.7513 18.3547 18.8659 17.6047 18.3451C16.5943 17.6576 15.6255 15.8555 14.9068 16.0951C14.1672 16.3346 14.188 17.9492 14.188 17.9492C14.188 17.9492 14.188 18.1784 14.0213 18.3555C13.8338 18.5534 13.4693 18.4805 13.4693 18.4805H12.2713C12.2713 18.4805 9.61509 18.7513 7.29218 16.3242C4.74009 13.6784 2.49009 8.47005 2.49009 8.47005C2.49009 8.47005 2.36509 8.15755 2.50051 7.98047C2.65676 7.8138 3.09426 7.8138 3.09426 7.8138H5.96926C5.96926 7.8138 6.25051 7.8138 6.42759 7.98047C6.58384 8.09505 6.67759 8.33464 6.67759 8.33464C6.67759 8.33464 7.13593 9.49089 7.76093 10.5534C8.95884 12.6263 9.51093 13.0742 9.89634 12.8555C10.5213 12.5326 10.3443 9.92838 10.3443 9.92838C10.3443 9.92838 10.3547 8.98047 10.0422 8.5638C9.80259 8.24089 9.34426 8.13672 9.14634 8.11589C8.97968 8.09505 9.25051 7.72005 9.59426 7.54297C10.1151 7.29297 11.0213 7.29297 12.1047 7.29297C12.9484 7.29297 13.188 7.35547 13.5109 7.42839C14.5109 7.66797 14.1672 8.59505 14.1672 10.8034C14.1672 11.5221 14.063 12.5013 14.5526 12.8451C14.7713 12.9909 15.313 12.8659 16.6672 10.5846C17.2922 9.5013 17.7713 8.22005 17.7713 8.22005C17.7713 8.22005 17.8755 8.0013 18.0318 7.89714C18.1984 7.8138 18.4276 7.8138 18.4276 7.8138H21.4484C21.4484 7.8138 22.3651 7.70964 22.5109 8.11589C22.6672 8.54297 22.1672 9.55338 20.9276 11.1888C18.9068 13.8971 18.6776 13.6471 20.3547 15.2096Z" fill="#011F3A"/>
</svg>
