<svg width="16" height="24" viewBox="0 0 16 24" fill="none" xmlns="http://www.w3.org/2000/svg">
<path d="M6.8173 16.9046C4.95674 16.7106 3.27917 16.2524 1.8429 15.129C1.66469 14.9893 1.48069 14.8546 1.31807 14.6985C0.689417 14.0947 0.626074 13.4032 1.12351 12.6906C1.54906 12.0808 2.26343 11.9177 3.00594 12.2678C3.14972 12.3357 3.28671 12.4204 3.41792 12.5114C6.09464 14.3506 9.77177 14.4014 12.4585 12.5941C12.7247 12.39 13.0093 12.2236 13.3391 12.1386C13.9803 11.974 14.5783 12.2095 14.9224 12.7705C15.3155 13.4112 15.3105 14.0366 14.8261 14.5341C14.0831 15.2967 13.1895 15.8484 12.1966 16.2335C11.2578 16.5975 10.2295 16.7807 9.21174 16.9024C9.36532 17.0695 9.43771 17.1517 9.53373 17.2482C10.9157 18.6367 12.3037 20.0195 13.6812 21.4123C14.1504 21.8868 14.2485 22.4752 13.9901 23.0272C13.7075 23.6305 13.0751 24.0274 12.455 23.9849C12.0622 23.9578 11.7557 23.7622 11.4835 23.488C10.4406 22.4385 9.37814 21.4085 8.35637 20.3392C8.05901 20.0283 7.91599 20.0871 7.65357 20.357C6.60439 21.4371 5.53813 22.5006 4.46558 23.5581C3.98398 24.0329 3.41088 24.1184 2.85236 23.8472C2.25865 23.5594 1.88086 22.9533 1.91002 22.3443C1.93012 21.9323 2.13272 21.6176 2.4155 21.3353C3.78314 19.9697 5.14702 18.6006 6.51139 17.2327C6.60163 17.1417 6.68583 17.0451 6.8173 16.9046Z" fill="#011F3A"/>
<path d="M7.95134 12.1479C4.63215 12.1366 1.91044 9.38501 1.92979 6.06054C1.94889 2.69937 4.67237 -0.0092764 8.02424 2.38782e-05C11.3829 0.0090728 14.0787 2.75668 14.0619 6.15279C14.0448 9.47047 11.3042 12.1595 7.95134 12.1479ZM10.9679 6.06858C10.9621 4.41791 9.64751 3.1038 8.00011 3.1023C6.33888 3.10054 5.01246 4.43852 5.02527 6.10427C5.03759 7.74866 6.36351 9.05347 8.01544 9.04743C9.66234 9.04165 10.9734 7.719 10.9679 6.06858Z" fill="#011F3A"/>
</svg>
