<svg width="21" height="20" viewBox="0 0 21 20" fill="none" xmlns="http://www.w3.org/2000/svg">
<g id="heart">
<path id="Path (Stroke)" fill-rule="evenodd" clip-rule="evenodd" d="M7.4174 4.04264C5.26567 4.04264 3.70573 6.09732 3.70573 8.13014C3.70573 10.254 5.03871 12.212 6.66721 13.6866C7.47056 14.4141 8.31623 14.9958 9.04044 15.3921C9.40262 15.5902 9.72572 15.7372 9.99045 15.8329C10.2694 15.9337 10.4343 15.9593 10.4974 15.9593C10.5605 15.9593 10.7254 15.9337 11.0043 15.8329C11.2691 15.7372 11.5922 15.5902 11.9543 15.3921C12.6786 14.9958 13.5242 14.4141 14.3276 13.6866C15.9561 12.212 17.2891 10.254 17.2891 8.13014C17.2891 6.09732 15.7291 4.04264 13.5774 4.04264C12.33 4.04264 11.5183 4.65599 11.0358 5.2204C10.9012 5.37783 10.7045 5.46848 10.4974 5.46848C10.2903 5.46848 10.0936 5.37783 9.95898 5.2204C9.4765 4.65599 8.66481 4.04264 7.4174 4.04264ZM2.28906 8.13014C2.28906 5.53796 4.27746 2.62598 7.4174 2.62598C8.78807 2.62598 9.80045 3.15811 10.4974 3.75885C11.1943 3.15811 12.2067 2.62598 13.5774 2.62598C16.7173 2.62598 18.7057 5.53796 18.7057 8.13014C18.7057 10.8404 17.0295 13.1512 15.2785 14.7368C14.392 15.5394 13.4553 16.1857 12.6344 16.6349C12.224 16.8594 11.8338 17.0395 11.4858 17.1652C11.152 17.2859 10.8047 17.376 10.4974 17.376C10.1901 17.376 9.84279 17.2859 9.50901 17.1652C9.16101 17.0395 8.77084 16.8594 8.36044 16.6349C7.5395 16.1857 6.60278 15.5394 5.71633 14.7368C3.96525 13.1512 2.28906 10.8404 2.28906 8.13014Z" fill="#99A5B0"/>
</g>
</svg>
