<svg width="219" height="29" viewBox="0 0 219 29" fill="none" xmlns="http://www.w3.org/2000/svg">
<path d="M49.24 24L44.54 11.48H44.46C44.4867 11.7467 44.5067 12.0867 44.52 12.5C44.5467 12.9133 44.5667 13.3667 44.58 13.86C44.5933 14.34 44.6 14.8333 44.6 15.34V24H42.94V9.72H45.6L50 21.42H50.08L54.56 9.72H57.2V24H55.42V15.22C55.42 14.7533 55.4267 14.2933 55.44 13.84C55.4533 13.3733 55.4733 12.94 55.5 12.54C55.5267 12.1267 55.5467 11.78 55.56 11.5H55.48L50.72 24H49.24ZM70.8645 24H62.8845V9.72H70.8645V11.3H64.6845V15.76H70.5045V17.32H64.6845V22.42H70.8645V24ZM85.4178 9.72V22.4H87.2378V27.76H85.5178V24H75.6978V27.76H73.9778V22.4H75.0778C75.5578 21.5733 76.0111 20.6467 76.4378 19.62C76.8778 18.5933 77.2645 17.52 77.5978 16.4C77.9311 15.2667 78.2045 14.1333 78.4178 13C78.6311 11.8667 78.7645 10.7733 78.8178 9.72H85.4178ZM80.3978 11.34C80.3445 12.1133 80.2111 12.9867 79.9978 13.96C79.7978 14.9333 79.5378 15.9333 79.2178 16.96C78.9111 17.9733 78.5645 18.9533 78.1778 19.9C77.8045 20.8467 77.4045 21.68 76.9778 22.4H83.6378V11.34H80.3978ZM91.4459 9.72H93.1259V17.56C93.1259 17.8933 93.1193 18.26 93.1059 18.66C93.1059 19.0467 93.0993 19.4333 93.0859 19.82C93.0726 20.2067 93.0526 20.5533 93.0259 20.86C93.0126 21.1533 92.9993 21.38 92.9859 21.54H93.0659L100.926 9.72H102.926V24H101.246V16.24C101.246 15.88 101.253 15.4933 101.266 15.08C101.279 14.6533 101.293 14.2467 101.306 13.86C101.333 13.46 101.353 13.1067 101.366 12.8C101.379 12.4933 101.393 12.2667 101.406 12.12H101.326L93.4459 24H91.4459V9.72ZM115.557 9.52V11.28C117.104 11.3067 118.324 11.56 119.217 12.04C120.111 12.52 120.744 13.16 121.117 13.96C121.491 14.7467 121.677 15.6267 121.677 16.6C121.677 17.24 121.577 17.88 121.377 18.52C121.191 19.1467 120.864 19.72 120.397 20.24C119.931 20.7467 119.304 21.16 118.517 21.48C117.731 21.8 116.744 21.9733 115.557 22V24.2H113.777V22C112.564 21.9733 111.557 21.8 110.757 21.48C109.971 21.1467 109.351 20.72 108.897 20.2C108.444 19.6667 108.124 19.0867 107.937 18.46C107.751 17.8333 107.657 17.2133 107.657 16.6C107.657 15.8933 107.757 15.2267 107.957 14.6C108.171 13.96 108.511 13.4 108.977 12.92C109.457 12.4267 110.091 12.0333 110.877 11.74C111.664 11.4467 112.631 11.2933 113.777 11.28V9.52H115.557ZM113.777 12.8C112.711 12.8267 111.857 13 111.217 13.32C110.591 13.64 110.144 14.08 109.877 14.64C109.611 15.1867 109.477 15.8333 109.477 16.58C109.477 17.3667 109.624 18.0533 109.917 18.64C110.224 19.2133 110.691 19.66 111.317 19.98C111.957 20.3 112.777 20.48 113.777 20.52V12.8ZM115.557 20.52C116.584 20.48 117.411 20.2933 118.037 19.96C118.677 19.6267 119.137 19.1733 119.417 18.6C119.711 18.0133 119.857 17.34 119.857 16.58C119.857 15.82 119.724 15.1667 119.457 14.62C119.191 14.06 118.744 13.6267 118.117 13.32C117.491 13 116.637 12.8267 115.557 12.8V20.52ZM138.912 16.84C138.912 17.9467 138.772 18.9533 138.492 19.86C138.212 20.7533 137.792 21.5267 137.232 22.18C136.685 22.8333 135.998 23.3333 135.172 23.68C134.358 24.0267 133.412 24.2 132.332 24.2C131.212 24.2 130.238 24.0267 129.412 23.68C128.585 23.32 127.898 22.82 127.352 22.18C126.805 21.5267 126.398 20.7467 126.132 19.84C125.865 18.9333 125.732 17.9267 125.732 16.82C125.732 15.3533 125.972 14.0733 126.452 12.98C126.932 11.8867 127.658 11.0333 128.632 10.42C129.618 9.80667 130.858 9.5 132.352 9.5C133.778 9.5 134.978 9.80667 135.952 10.42C136.925 11.02 137.658 11.8733 138.152 12.98C138.658 14.0733 138.912 15.36 138.912 16.84ZM127.632 16.84C127.632 18.04 127.798 19.0733 128.132 19.94C128.465 20.8067 128.978 21.4733 129.672 21.94C130.378 22.4067 131.265 22.64 132.332 22.64C133.412 22.64 134.292 22.4067 134.972 21.94C135.665 21.4733 136.178 20.8067 136.512 19.94C136.845 19.0733 137.012 18.04 137.012 16.84C137.012 15.04 136.638 13.6333 135.892 12.62C135.145 11.5933 133.965 11.08 132.352 11.08C131.272 11.08 130.378 11.3133 129.672 11.78C128.978 12.2333 128.465 12.8933 128.132 13.76C127.798 14.6133 127.632 15.64 127.632 16.84ZM147.657 9.72C149.523 9.72 150.883 10.0867 151.737 10.82C152.59 11.5533 153.017 12.5867 153.017 13.92C153.017 14.5067 152.917 15.0733 152.717 15.62C152.53 16.1533 152.217 16.6333 151.777 17.06C151.337 17.4867 150.75 17.8267 150.017 18.08C149.283 18.32 148.383 18.44 147.317 18.44H145.677V24H143.877V9.72H147.657ZM147.497 11.26H145.677V16.9H147.117C148.023 16.9 148.777 16.8067 149.377 16.62C149.977 16.42 150.423 16.1067 150.717 15.68C151.01 15.2533 151.157 14.6933 151.157 14C151.157 13.08 150.863 12.3933 150.277 11.94C149.69 11.4867 148.763 11.26 147.497 11.26ZM164.086 24L159.386 11.48H159.306C159.333 11.7467 159.353 12.0867 159.366 12.5C159.393 12.9133 159.413 13.3667 159.426 13.86C159.439 14.34 159.446 14.8333 159.446 15.34V24H157.786V9.72H160.446L164.846 21.42H164.926L169.406 9.72H172.046V24H170.266V15.22C170.266 14.7533 170.273 14.2933 170.286 13.84C170.299 13.3733 170.319 12.94 170.346 12.54C170.373 12.1267 170.393 11.78 170.406 11.5H170.326L165.566 24H164.086ZM183.711 19.94C183.284 20.8867 182.851 21.68 182.411 22.32C181.984 22.9467 181.477 23.42 180.891 23.74C180.304 24.0467 179.557 24.2 178.651 24.2C178.277 24.2 177.924 24.1733 177.591 24.12C177.271 24.0667 176.977 23.9933 176.711 23.9V22.12C176.977 22.24 177.264 22.34 177.571 22.42C177.877 22.4867 178.197 22.52 178.531 22.52C179.024 22.52 179.444 22.4533 179.791 22.32C180.151 22.1733 180.464 21.94 180.731 21.62C181.011 21.3 181.271 20.8733 181.511 20.34L176.011 9.72H177.991L181.971 17.58C182.024 17.6733 182.077 17.7867 182.131 17.92C182.184 18.04 182.237 18.1667 182.291 18.3C182.357 18.4333 182.411 18.56 182.451 18.68H182.531C182.571 18.5867 182.611 18.48 182.651 18.36C182.704 18.2267 182.751 18.1 182.791 17.98C182.844 17.8467 182.891 17.7333 182.931 17.64L186.371 9.72H188.271L183.711 19.94ZM201.295 24H199.495V11.3H194.975C194.882 12.0333 194.782 12.8067 194.675 13.62C194.568 14.42 194.455 15.2133 194.335 16C194.228 16.7867 194.122 17.5267 194.015 18.22C193.908 18.9133 193.802 19.52 193.695 20.04C193.522 20.9333 193.308 21.6933 193.055 22.32C192.802 22.9467 192.462 23.42 192.035 23.74C191.622 24.06 191.075 24.22 190.395 24.22C190.168 24.22 189.935 24.1933 189.695 24.14C189.468 24.1 189.268 24.0467 189.095 23.98V22.48C189.242 22.5467 189.408 22.6067 189.595 22.66C189.782 22.7 189.982 22.72 190.195 22.72C190.595 22.72 190.908 22.56 191.135 22.24C191.375 21.9067 191.562 21.5 191.695 21.02C191.828 20.5267 191.942 20.04 192.035 19.56C192.115 19.1733 192.208 18.66 192.315 18.02C192.422 17.3667 192.535 16.6067 192.655 15.74C192.788 14.8733 192.922 13.9333 193.055 12.92C193.202 11.8933 193.342 10.8267 193.475 9.72H201.295V24ZM215.935 24L214.215 19.58H208.555L206.855 24H205.035L210.615 9.66H212.235L217.795 24H215.935ZM212.075 13.66C212.035 13.5533 211.968 13.36 211.875 13.08C211.782 12.8 211.688 12.5133 211.595 12.22C211.515 11.9133 211.448 11.68 211.395 11.52C211.328 11.7867 211.255 12.06 211.175 12.34C211.108 12.6067 211.035 12.8533 210.955 13.08C210.888 13.3067 210.828 13.5 210.775 13.66L209.155 17.98H213.675L212.075 13.66Z" fill="#011F3A"/>
<rect width="12.2499" height="12.2831" transform="matrix(-0.688951 -0.724808 0.697873 -0.716221 27.6484 28.1394)" fill="#009FE3"/>
<rect width="12.2499" height="12.2831" transform="matrix(-0.688951 -0.724808 0.697873 -0.716221 27.6484 28.1394)" fill="url(#paint0_linear_280_7449)" fill-opacity="0.2"/>
<rect width="12.2499" height="12.2831" transform="matrix(-0.688951 -0.724808 0.697873 -0.716221 8.43945 28.1357)" fill="#009FE3"/>
<rect width="12.2499" height="12.2831" transform="matrix(-0.688951 -0.724808 0.697873 -0.716221 8.43945 28.1357)" fill="url(#paint1_linear_280_7449)" fill-opacity="0.2"/>
<rect width="12.2499" height="12.2831" transform="matrix(-0.688951 -0.724808 0.697873 -0.716221 17.875 17.6763)" fill="#009640"/>
<rect width="12.2499" height="12.2831" transform="matrix(-0.688951 -0.724808 0.697873 -0.716221 17.875 17.6763)" fill="url(#paint2_linear_280_7449)" fill-opacity="0.2"/>
<defs>
<linearGradient id="paint0_linear_280_7449" x1="6.12494" y1="0" x2="6.12494" y2="12.2831" gradientUnits="userSpaceOnUse">
<stop stop-color="white"/>
<stop offset="1" stop-color="white" stop-opacity="0"/>
</linearGradient>
<linearGradient id="paint1_linear_280_7449" x1="6.12494" y1="0" x2="6.12494" y2="12.2831" gradientUnits="userSpaceOnUse">
<stop stop-color="white"/>
<stop offset="1" stop-color="white" stop-opacity="0"/>
</linearGradient>
<linearGradient id="paint2_linear_280_7449" x1="6.12494" y1="0" x2="6.12494" y2="12.2831" gradientUnits="userSpaceOnUse">
<stop stop-color="white"/>
<stop offset="1" stop-color="white" stop-opacity="0"/>
</linearGradient>
</defs>
</svg>
