<svg width="20" height="20" viewBox="0 0 20 20" fill="none" xmlns="http://www.w3.org/2000/svg">
<g id="icons/home">
<g id="Vector">
<path fill-rule="evenodd" clip-rule="evenodd" d="M6.53027 13.1016C6.53027 12.6874 6.86606 12.3516 7.28027 12.3516H12.6128C13.027 12.3516 13.3628 12.6874 13.3628 13.1016C13.3628 13.5158 13.027 13.8516 12.6128 13.8516H7.28027C6.86606 13.8516 6.53027 13.5158 6.53027 13.1016Z" fill="#99A5B0"/>
<path fill-rule="evenodd" clip-rule="evenodd" d="M12.004 4.32803C10.8323 3.39066 9.16735 3.39066 7.99564 4.32803L4.82906 6.8613C4.06803 7.47012 3.62501 8.39188 3.625 9.36648V13.1664C3.625 14.9382 5.06137 16.3746 6.83322 16.3746H13.1664C14.9382 16.3746 16.3746 14.9382 16.3746 13.1664L16.3746 9.36648C16.3746 8.39189 15.9316 7.47014 15.1706 6.8613L12.004 4.32803ZM7.05859 3.15673C8.77813 1.78109 11.2215 1.78109 12.941 3.15674L16.1076 5.68999C17.2244 6.58349 17.8746 7.93621 17.8746 9.36647V13.1664C17.8746 15.7666 15.7666 17.8746 13.1664 17.8746H6.83322C4.23294 17.8746 2.125 15.7666 2.125 13.1664V9.36647C2.12501 7.9362 2.77517 6.58347 3.89202 5.68999L7.05859 3.15673Z" fill="#99A5B0"/>
</g>
</g>
</svg>
