<svg width="20" height="20" viewBox="0 0 20 20" fill="none" xmlns="http://www.w3.org/2000/svg">
<path fill-rule="evenodd" clip-rule="evenodd" d="M9.99785 3.13419C8.41962 3.13419 7.14022 4.41359 7.14022 5.99182C7.14022 7.57005 8.41962 8.84946 9.99785 8.84946C11.5761 8.84946 12.8555 7.57005 12.8555 5.99182C12.8555 4.41359 11.5761 3.13419 9.99785 3.13419ZM5.72917 5.99182C5.72917 3.6343 7.64032 1.72314 9.99785 1.72314C12.3554 1.72314 14.2665 3.6343 14.2665 5.99182C14.2665 8.34935 12.3554 10.2605 9.99785 10.2605C7.64032 10.2605 5.72917 8.34935 5.72917 5.99182ZM2.16602 16.904C2.16602 14.4235 4.17687 12.4126 6.65739 12.4126H13.3383C15.8188 12.4126 17.8297 14.4235 17.8297 16.904V17.5721C17.8297 17.9617 17.5138 18.2776 17.1242 18.2776C16.7345 18.2776 16.4186 17.9617 16.4186 17.5721V16.904C16.4186 15.2028 15.0395 13.8237 13.3383 13.8237H6.65739C4.95617 13.8237 3.57706 15.2028 3.57706 16.904V17.5721C3.57706 17.9617 3.26119 18.2776 2.87154 18.2776C2.48189 18.2776 2.16602 17.9617 2.16602 17.5721V16.904Z" fill="#011F3A"/>
</svg>
