<svg width="14" height="14" viewBox="0 0 14 14" fill="none" xmlns="http://www.w3.org/2000/svg">
<g id="icons/bonus">
<path id="Vector" d="M12.6878 6.05487L11.6115 10.8105C11.5902 10.91 11.5348 10.9989 11.455 11.062C11.3751 11.1251 11.2758 11.1584 11.174 11.1561H2.79153C2.68979 11.1584 2.59045 11.1251 2.51059 11.062C2.43074 10.9989 2.37538 10.91 2.35403 10.8105L1.31278 6.05487C1.29526 5.97451 1.30074 5.89084 1.3286 5.81346C1.35645 5.73608 1.40556 5.66811 1.47028 5.61737C1.53518 5.56644 1.61316 5.5349 1.69521 5.52638C1.77727 5.51787 1.86006 5.53272 1.93403 5.56924L4.48903 6.80737L6.60653 3.06237C6.64469 2.99504 6.70002 2.93903 6.76689 2.90007C6.83376 2.86111 6.90976 2.84058 6.98716 2.84058C7.06455 2.84058 7.14055 2.86111 7.20742 2.90007C7.27429 2.93903 7.32962 2.99504 7.36778 3.06237L9.48528 6.81174L12.0578 5.56487C12.1323 5.52537 12.2166 5.50825 12.3006 5.51556C12.3846 5.52287 12.4647 5.5543 12.5313 5.60607C12.5978 5.65784 12.648 5.72774 12.6758 5.80736C12.7036 5.88699 12.7077 5.97293 12.6878 6.05487Z" fill="white"/>
</g>
</svg>
