<svg width="24" height="24" viewBox="0 0 24 24" fill="none" xmlns="http://www.w3.org/2000/svg">
<g id="icons/cart">
<path id="Vector (Stroke)" fill-rule="evenodd" clip-rule="evenodd" d="M1.63135 2.70986C1.63135 2.24042 2.01191 1.85986 2.48135 1.85986H4.48123C4.88129 1.85986 5.2272 2.13883 5.31194 2.52982L5.921 5.33993H19.882C21.1905 5.33993 22.1491 6.56873 21.8318 7.838L20.2681 14.0928C19.9433 15.3904 18.8402 16.3451 17.5085 16.4783L9.60177 17.2694C7.99258 17.4294 6.51932 16.354 6.18459 14.7716L4.40479 6.36998L3.79572 3.55986H2.48135C2.01191 3.55986 1.63135 3.17931 1.63135 2.70986ZM6.28443 7.03994L7.84768 14.4193C8.00261 15.1521 8.68519 15.6522 9.43306 15.5778L17.3392 14.7868C17.9564 14.725 18.4681 14.2829 18.6189 13.6803L20.1826 7.42569C20.2318 7.22869 20.0838 7.03994 19.882 7.03994H6.28443ZM7.23854 20.844C7.23608 20.136 7.81144 19.5694 8.5108 19.5694C9.21573 19.5694 9.78653 20.1402 9.78653 20.8451C9.78653 21.5489 9.21573 22.1197 8.51196 22.1197C7.8141 22.1197 7.23611 21.5547 7.23854 20.844ZM16.9977 20.8487C16.993 20.1387 17.5693 19.57 18.27 19.57C18.9742 19.57 19.5434 20.1392 19.5469 20.8404L19.5469 20.8446C19.5469 21.5483 18.9761 22.1191 18.2723 22.1191C17.5699 22.1191 17 21.5506 16.9977 20.8487Z" fill="#011F3A"/>
</g>
</svg>
