<svg width="20" height="20" viewBox="0 0 20 20" fill="none" xmlns="http://www.w3.org/2000/svg">
<g id="icons/user">
<path id="Vector (Stroke)" fill-rule="evenodd" clip-rule="evenodd" d="M9.9959 3.13419C8.41767 3.13419 7.13826 4.41359 7.13826 5.99182C7.13826 7.57005 8.41767 8.84946 9.9959 8.84946C11.5741 8.84946 12.8535 7.57005 12.8535 5.99182C12.8535 4.41359 11.5741 3.13419 9.9959 3.13419ZM5.72722 5.99182C5.72722 3.6343 7.63837 1.72314 9.9959 1.72314C12.3534 1.72314 14.2646 3.6343 14.2646 5.99182C14.2646 8.34935 12.3534 10.2605 9.9959 10.2605C7.63837 10.2605 5.72722 8.34935 5.72722 5.99182ZM2.16406 16.904C2.16406 14.4235 4.17492 12.4126 6.65544 12.4126H13.3364C15.8169 12.4126 17.8277 14.4235 17.8277 16.904V17.5721C17.8277 17.9617 17.5119 18.2776 17.1222 18.2776C16.7326 18.2776 16.4167 17.9617 16.4167 17.5721V16.904C16.4167 15.2028 15.0376 13.8237 13.3364 13.8237H6.65544C4.95422 13.8237 3.57511 15.2028 3.57511 16.904V17.5721C3.57511 17.9617 3.25923 18.2776 2.86958 18.2776C2.47994 18.2776 2.16406 17.9617 2.16406 17.5721V16.904Z" fill="#99A5B0"/>
</g>
</svg>
