<svg width="310" height="67" viewBox="0 0 310 67" fill="none" xmlns="http://www.w3.org/2000/svg">
<path d="M18.7138 0C37.18 29.4478 5.18736 28.482 3.8684 48.4348C-9.90058 12.8617 17.4115 24.461 18.7138 0Z" fill="#009640"/>
<path d="M18.7138 0C37.18 29.4478 5.18736 28.482 3.8684 48.4348C-9.90058 12.8617 17.4115 24.461 18.7138 0Z" fill="url(#paint0_linear_83_88342)" fill-opacity="0.7"/>
<path d="M27.8622 18.5659C46.3284 48.0137 14.3358 47.048 13.0168 67.0007C-0.752145 31.4276 26.5599 43.0269 27.8622 18.5659Z" fill="#009FE3"/>
<path d="M27.8622 18.5659C46.3284 48.0137 14.3358 47.048 13.0168 67.0007C-0.752145 31.4276 26.5599 43.0269 27.8622 18.5659Z" fill="url(#paint1_linear_83_88342)" fill-opacity="0.8"/>
<path d="M45.625 22.8135H48.561L55.5719 35.8409L62.5828 22.8135H65.399V43.306H62.5828V27.7902L56.5603 38.9148H54.463L48.4413 27.7902V43.306H45.625V22.8135Z" fill="#011F3A"/>
<path d="M72.2109 22.8135H85.6946V25.2136H75.0272V31.5666H84.7949V33.9667H75.0272V40.9052H85.6946V43.306H72.2109V22.8135Z" fill="#011F3A"/>
<path d="M105.01 40.9052V25.2136H96.9507V27.4975C96.9723 30.0694 96.8373 32.6403 96.5464 35.1965C96.328 37.1404 95.891 39.0549 95.2433 40.9052H105.01ZM90 40.9052H92.2464C92.6746 40.0276 92.9965 39.1041 93.2054 38.1535C93.477 36.9903 93.6771 35.8123 93.8047 34.6258C93.9442 33.3672 94.0438 32.0695 94.1035 30.7325C94.1646 29.3957 94.195 28.1222 94.1947 26.912V22.8135H107.827V40.9052H110.373V47.1118H107.677V43.3053H92.6966V47.1118H90V40.9052Z" fill="#011F3A"/>
<path d="M115.422 22.8135H118.237V38.9148L129.383 22.8135H132.201V43.306H129.383V27.2047L118.237 43.306H115.422V22.8135Z" fill="#011F3A"/>
<path d="M165.825 35.8115H172.836L169.33 26.3265L165.825 35.8115ZM173.765 38.2116H164.896L162.889 43.3053H159.953L167.983 22.8135H170.798L178.827 43.3053H175.773L173.765 38.2116Z" fill="#011F3A"/>
<path d="M183.734 22.8159H186.67L193.681 35.8433L200.692 22.8159H203.509V43.3085H200.692V27.7927L194.67 38.9172H192.573L186.551 27.7927V43.3085H183.734V22.8159Z" fill="#011F3A"/>
<path d="M214.279 35.8115H221.289L217.785 26.3265L214.279 35.8115ZM222.218 38.2116H213.35L211.342 43.3053H208.406L216.436 22.8135H219.253L227.282 43.3053H224.226L222.218 38.2116Z" fill="#011F3A"/>
<path d="M239.228 33.0029C240.081 33.0199 240.932 32.9264 241.76 32.7249C242.367 32.5786 242.937 32.315 243.437 31.9496C243.857 31.6307 244.178 31.2052 244.366 30.7197C244.746 29.6783 244.746 28.5409 244.366 27.4995C244.178 27.0142 243.857 26.5889 243.437 26.2704C242.937 25.905 242.367 25.6412 241.76 25.4943C240.932 25.2925 240.081 25.1987 239.228 25.2155H235.004V33.0029H239.228ZM232.188 22.8155H239.378C240.594 22.7937 241.806 22.9517 242.974 23.284C243.898 23.5477 244.759 23.9907 245.505 24.5867C246.158 25.1217 246.667 25.8052 246.988 26.5771C247.627 28.2076 247.627 30.0116 246.988 31.6421C246.667 32.414 246.158 33.0975 245.505 33.6325C244.759 34.2285 243.898 34.6715 242.974 34.9352C241.806 35.2675 240.594 35.4255 239.378 35.4037H235.004V43.308H232.188V22.8155Z" fill="#011F3A"/>
<path d="M274.836 22.8135H288.319V25.2136H277.653V31.5666H287.42V33.9667H277.653V40.9052H288.319V43.306H274.836V22.8135Z" fill="#011F3A"/>
<path d="M299.907 25.216H292.625V22.8159H310.003V25.216H302.722V43.3077H299.907V25.216Z" fill="#011F3A"/>
<path d="M141.816 22.8159H139V43.3085H141.816V22.8159Z" fill="#011F3A"/>
<path d="M146.615 32.5912L155.783 22.8135H152.427L147.374 28.2371L147.405 28.2224L143.234 32.6849L146.46 36.4581L152.488 43.306H156.082L146.615 32.5912Z" fill="#011F3A"/>
<path d="M255.536 22.8135H252.719V43.306H255.536V22.8135Z" fill="#011F3A"/>
<path d="M260.328 32.5912L269.495 22.8135H266.139L257.931 31.6254H257.907L256.938 32.6617L260.501 36.8299L266.2 43.306H269.795L260.328 32.5912Z" fill="#011F3A"/>
<defs>
<linearGradient id="paint0_linear_83_88342" x1="-4.02524" y1="18.3929" x2="9.8312" y2="29.2004" gradientUnits="userSpaceOnUse">
<stop stop-color="white"/>
<stop offset="1" stop-color="white" stop-opacity="0"/>
</linearGradient>
<linearGradient id="paint1_linear_83_88342" x1="40.9304" y1="69.6282" x2="15.262" y2="40.3296" gradientUnits="userSpaceOnUse">
<stop stop-color="white"/>
<stop offset="1" stop-color="white" stop-opacity="0"/>
</linearGradient>
</defs>
</svg>
