<svg width="24" height="24" viewBox="0 0 24 24" fill="none" xmlns="http://www.w3.org/2000/svg">
<g id="icons/catalogue">
<g id="Vector">
<path fill-rule="evenodd" clip-rule="evenodd" d="M8.09583 6.43683C8.09583 5.93977 8.49878 5.53683 8.99583 5.53683H20.0004C20.4975 5.53683 20.9004 5.93977 20.9004 6.43683C20.9004 6.93389 20.4975 7.33683 20.0004 7.33683H8.99583C8.49878 7.33683 8.09583 6.93389 8.09583 6.43683Z" fill="#99A5B0"/>
<path fill-rule="evenodd" clip-rule="evenodd" d="M8.09583 12.0001C8.09583 11.5031 8.49878 11.1001 8.99583 11.1001H20.0004C20.4975 11.1001 20.9004 11.5031 20.9004 12.0001C20.9004 12.4972 20.4975 12.9001 20.0004 12.9001H8.99583C8.49878 12.9001 8.09583 12.4972 8.09583 12.0001Z" fill="#99A5B0"/>
<path fill-rule="evenodd" clip-rule="evenodd" d="M8.09583 17.5635C8.09583 17.0664 8.49878 16.6635 8.99583 16.6635H20.0004C20.4975 16.6635 20.9004 17.0664 20.9004 17.5635C20.9004 18.0605 20.4975 18.4635 20.0004 18.4635H8.99583C8.49878 18.4635 8.09583 18.0605 8.09583 17.5635Z" fill="#99A5B0"/>
<path fill-rule="evenodd" clip-rule="evenodd" d="M3.09375 6.43683C3.09375 5.66352 3.72064 5.03662 4.49396 5.03662C5.26727 5.03662 5.89417 5.66352 5.89417 6.43683C5.89417 7.21014 5.26727 7.83704 4.49396 7.83704C3.72064 7.83704 3.09375 7.21014 3.09375 6.43683Z" fill="#99A5B0"/>
<path fill-rule="evenodd" clip-rule="evenodd" d="M3.09375 12.0001C3.09375 11.2268 3.72064 10.5999 4.49396 10.5999C5.26727 10.5999 5.89417 11.2268 5.89417 12.0001C5.89417 12.7735 5.26727 13.4004 4.49396 13.4004C3.72064 13.4004 3.09375 12.7735 3.09375 12.0001Z" fill="#99A5B0"/>
<path fill-rule="evenodd" clip-rule="evenodd" d="M3.09375 17.5635C3.09375 16.7902 3.72064 16.1633 4.49396 16.1633C5.26727 16.1633 5.89417 16.7902 5.89417 17.5635C5.89417 18.3368 5.26727 18.9637 4.49396 18.9637C3.72064 18.9637 3.09375 18.3368 3.09375 17.5635Z" fill="#99A5B0"/>
</g>
</g>
</svg>
