<svg width="28" height="28" viewBox="0 0 28 28" fill="none" xmlns="http://www.w3.org/2000/svg">
<path fill-rule="evenodd" clip-rule="evenodd" d="M8.10215 22.1663H5.89948C5.21931 22.1663 4.66748 21.6145 4.66748 20.9343V12.315C4.66748 11.6348 5.21931 11.083 5.89948 11.083H8.10215C8.78231 11.083 9.33415 11.6348 9.33415 12.315V20.9343C9.33415 21.6145 8.78231 22.1663 8.10215 22.1663V22.1663Z" stroke="#011F3A" stroke-width="2" stroke-linecap="round" stroke-linejoin="round"/>
<path d="M9.33252 12.3338L13.5897 6.791C14.3819 5.7585 15.9289 5.73283 16.756 6.73733V6.73733C17.0652 7.11183 17.2332 7.58316 17.2332 8.0685V11.8847H20.8452C21.5464 11.8847 22.2009 12.2347 22.5905 12.8168L22.9744 13.3897C23.3185 13.9042 23.4189 14.5447 23.2474 15.1385L21.6619 20.6475C21.4029 21.547 20.5804 22.1665 19.6447 22.1665H12.3075C11.7242 22.1665 11.1665 21.9238 10.7699 21.4968L9.33252 19.9498" stroke="#011F3A" stroke-width="2" stroke-linecap="round" stroke-linejoin="round"/>
</svg>
