<svg width="28" height="28" viewBox="0 0 28 28" fill="none" xmlns="http://www.w3.org/2000/svg">
<path d="M24.5008 24.5003L25.1751 23.1517C25.499 22.5039 25.6676 21.7895 25.6675 21.0653V13.417C25.6675 12.4505 24.884 11.667 23.9175 11.667V11.667C22.951 11.667 22.1675 12.4505 22.1675 13.417V18.0837" stroke="#011F3A" stroke-width="2" stroke-linecap="round" stroke-linejoin="round"/>
<path fill-rule="evenodd" clip-rule="evenodd" d="M9.33252 8.75C9.33252 10.973 12.103 12.6241 13.377 13.266C13.7675 13.4669 14.2309 13.4669 14.6214 13.266C15.8954 12.6241 18.6659 10.9765 18.6659 8.75V5.59193C18.6574 5.28474 18.4166 5.03441 18.11 5.01413C16.8701 4.91441 15.6832 4.46866 14.6842 3.7276C14.278 3.42413 13.7205 3.42413 13.3142 3.7276C12.3152 4.46868 11.1283 4.91443 9.88842 5.01412C9.58006 5.03068 9.33716 5.28315 9.33252 5.59192L9.33252 8.75Z" stroke="#011F3A" stroke-width="2" stroke-linecap="round" stroke-linejoin="round"/>
<path d="M16.3325 24.4996V21.1007C16.3325 20.5959 16.4963 20.1046 16.7992 19.7007L18.7568 17.0906C19.0862 16.6514 19.59 16.3767 20.1377 16.3378C20.6853 16.2989 21.2229 16.4995 21.6111 16.8877V16.8877C22.2776 17.5542 22.3525 18.6093 21.787 19.3633L20.5598 20.9996" stroke="#011F3A" stroke-width="2" stroke-linecap="round" stroke-linejoin="round"/>
<path d="M3.49919 24.5003L2.82485 23.1517C2.50098 22.5039 2.33241 21.7895 2.33252 21.0653V13.417C2.33252 12.4505 3.11602 11.667 4.08252 11.667V11.667C5.04902 11.667 5.83252 12.4505 5.83252 13.417V18.0837" stroke="#011F3A" stroke-width="2" stroke-linecap="round" stroke-linejoin="round"/>
<path d="M11.6658 24.4996V21.1007C11.6658 20.5959 11.5021 20.1046 11.1992 19.7007L9.24158 17.0906C8.91217 16.6514 8.40836 16.3767 7.86071 16.3378C7.31306 16.2989 6.77548 16.4995 6.38725 16.8877V16.8877C5.7208 17.5542 5.64582 18.6093 6.21133 19.3633L7.4386 20.9996" stroke="#011F3A" stroke-width="2" stroke-linecap="round" stroke-linejoin="round"/>
</svg>
