<svg width="14" height="10" viewBox="0 0 14 10" fill="none" xmlns="http://www.w3.org/2000/svg">
<path fill-rule="evenodd" clip-rule="evenodd" d="M8.24836 0.240718C8.50682 -0.0177394 8.92586 -0.0177395 9.18432 0.240718L13.4757 4.53207C13.5998 4.65619 13.6695 4.82453 13.6695 5.00005C13.6695 5.17558 13.5998 5.34392 13.4757 5.46803L9.18432 9.75939C8.92586 10.0178 8.50682 10.0178 8.24836 9.75939C7.98991 9.50093 7.98991 9.08189 8.24836 8.82343L11.4099 5.66188H0.991901C0.626386 5.66188 0.330078 5.36557 0.330078 5.00005C0.330078 4.63454 0.626386 4.33823 0.991901 4.33823H11.4099L8.24836 1.17668C7.98991 0.918219 7.98991 0.499176 8.24836 0.240718Z" fill="#011F3A"/>
</svg>
